<svg viewBox="0 0 100 100" xmlns="http://www.w3.org/2000/svg" fill="none" stroke-linecap="round" stroke-linejoin="round"><metadata>
  <origin>https://github.com/nthnkrdpna-cloud/Prototype-TM01</origin>
  <authors>Nthnkr "dpna" and AmandaBT</authors>
  <piece>OPEN-A-032</piece>
  <fingerprint>0a51571f3fce2149</fingerprint>
  <license>Open set — see LICENSE. Redistribution, model training and authorship claims are not permitted.</license>
</metadata><g class="sig" opacity="0.045" aria-hidden="true"><circle cx="50" cy="50" r="46" fill="none" stroke="currentColor" stroke-width="3" opacity="0.5"/><path d="M50.00 20.00L75.98 65.00L24.02 65.00Z" fill="none" stroke="currentColor" stroke-width="3" opacity="0.7"/><path d="M50.00 80.00L24.02 35.00L75.98 35.00Z" fill="none" stroke="currentColor" stroke-width="3" opacity="0.35"/><circle cx="50" cy="50" r="9" fill="currentColor" opacity="0.75"/></g><g><path d="M0.000,-9.941V9.940" stroke="#a54557" stroke-width="2.74" opacity="0.92" data-i="0" transform="translate(50.8,50.8) rotate(135)"/><path d="M0.001,0.001H12.600M12.601,0.001L8.821,-3.151M12.600,0.001L8.820,3.150" stroke="#a54557" stroke-width="2.52" opacity="0.92" data-i="1" transform="translate(36.5,50.8) rotate(0)"/><path d="M0.001,0.001H11.000M11.001,0.000L7.701,-2.750M11.001,0.000L7.701,2.751" stroke="#a54557" stroke-width="2.30" opacity="0.92" data-i="2" transform="translate(65.1,50.8) rotate(0) scale(1,-1)"/><path d="M0.001,0.001H6.581a2.820,2.820 0 0,1 0.001,5.640" stroke="#a54557" stroke-width="2.08" opacity="0.92" data-i="3" transform="translate(50.8,38.1) rotate(0)"/><path d="M0.000,0.001H6.580a2.821,2.821 0 0,1 0.000,5.641" stroke="#a54557" stroke-width="2.08" opacity="0.92" data-i="4" transform="translate(50.8,63.5) rotate(0) scale(1,-1)"/><path d="M-22.301,0.001a22.301,22.300 0 1,0 44.601,0.000a22.300,22.301 0 1,0 -44.601,0.000" stroke="#a54557" stroke-width="1.6" opacity="0.55" transform="translate(50.8,50.8) rotate(0)"/></g></svg>
