<svg viewBox="0 0 100 100" xmlns="http://www.w3.org/2000/svg" fill="none" stroke-linecap="round" stroke-linejoin="round"><metadata>
  <origin>https://github.com/nthnkrdpna-cloud/Prototype-TM01</origin>
  <authors>Nthnkr "dpna" and AmandaBT</authors>
  <piece>OPEN-A-001</piece>
  <fingerprint>1ced56682849f606</fingerprint>
  <license>Open set — see LICENSE. Redistribution, model training and authorship claims are not permitted.</license>
</metadata><g class="sig" opacity="0.045" aria-hidden="true"><circle cx="50" cy="50" r="46" fill="none" stroke="currentColor" stroke-width="3" opacity="0.5"/><path d="M50.00 20.00L75.98 65.00L24.02 65.00Z" fill="none" stroke="currentColor" stroke-width="3" opacity="0.7"/><path d="M50.00 80.00L24.02 35.00L75.98 35.00Z" fill="none" stroke="currentColor" stroke-width="3" opacity="0.35"/><circle cx="50" cy="50" r="9" fill="currentColor" opacity="0.75"/></g><g><path d="M0,0H14.200000000000001M14.200000000000001,0L9.94,-3.5500000000000003M14.200000000000001,0L9.94,3.5500000000000003" stroke="#c9b26a" stroke-width="2.74" opacity="0.92" data-i="0" transform="translate(50.8,50.8) rotate(191)"/><path d="M0,-5.5A5.5,5.5 0 0,0 0,5.5" stroke="#c9b26a" stroke-width="2.30" opacity="0.92" data-i="1" transform="translate(38.1,46.0) rotate(191)"/><path d="M0,-4.7A4.7,4.7 0 0,0 0,4.7" stroke="#c9b26a" stroke-width="2.08" opacity="0.92" data-i="2" transform="translate(63.5,46.0) rotate(191) scale(1,-1)"/><path d="M0,-4.41V4.41M2.5200000000000005,-4.41V4.41M5.040000000000001,-4.41V4.41" stroke="#c9b26a" stroke-width="2.52" opacity="0.92" data-i="3" transform="translate(42.9,61.9) rotate(0)"/><path d="M0,-3.8499999999999996V3.8499999999999996M2.2,-3.8499999999999996V3.8499999999999996M4.4,-3.8499999999999996V3.8499999999999996" stroke="#c9b26a" stroke-width="2.30" opacity="0.92" data-i="4" transform="translate(58.7,61.9) rotate(0) scale(1,-1)"/><path d="M-22.6,0a22.6,22.6 0 1,0 45.3,0a22.6,22.6 0 1,0 -45.3,0" stroke="#c9b26a" stroke-width="1.6" opacity="0.55" transform="translate(50.8,53.3) rotate(0)"/></g></svg>
