<svg viewBox="0 0 100 100" xmlns="http://www.w3.org/2000/svg" fill="none" stroke-linecap="round" stroke-linejoin="round"><metadata>
  <origin>https://github.com/nthnkrdpna-cloud/Prototype-TM01</origin>
  <authors>Nthnkr "dpna" and AmandaBT</authors>
  <piece>OPEN-A-007</piece>
  <fingerprint>7601bf7b5067f191</fingerprint>
  <license>Open set — see LICENSE. Redistribution, model training and authorship claims are not permitted.</license>
</metadata><g class="sig" opacity="0.045" aria-hidden="true"><circle cx="50" cy="50" r="46" fill="none" stroke="currentColor" stroke-width="3" opacity="0.5"/><path d="M50.00 20.00L75.98 65.00L24.02 65.00Z" fill="none" stroke="currentColor" stroke-width="3" opacity="0.7"/><path d="M50.00 80.00L24.02 35.00L75.98 35.00Z" fill="none" stroke="currentColor" stroke-width="3" opacity="0.35"/><circle cx="50" cy="50" r="9" fill="currentColor" opacity="0.75"/></g><g><path d="M0.000,-4.701A4.700,4.701 0 0,0 0.001,4.700" stroke="#466774" stroke-width="2.08" opacity="0.92" data-i="0" transform="translate(50.8,31.8) rotate(270)"/><path d="M0.001,-8.521A10.651,10.650 0 0,1 0.000,8.520" stroke="#466774" stroke-width="2.74" opacity="0.92" data-i="1" transform="translate(50.8,41.3) rotate(270)"/><path d="M0.001,-8.521A10.650,10.651 0 0,1 0.000,8.520" stroke="#466774" stroke-width="2.74" opacity="0.92" data-i="2" transform="translate(50.8,50.8) rotate(270)"/><path d="M0.000,-8.520A10.651,10.651 0 0,1 0.001,8.521" stroke="#466774" stroke-width="2.74" opacity="0.92" data-i="3" transform="translate(50.8,60.3) rotate(270) scale(1,-1)"/><path d="M0.001,0.000H8.821a3.781,3.780 0 0,1 0.000,7.560" stroke="#466774" stroke-width="2.52" opacity="0.92" data-i="4" transform="translate(50.8,69.8) rotate(0)"/><path d="M-27.000,0.000a27.001,27.000 0 1,0 54.101,0.001a27.000,27.001 0 1,0 -54.101,0.001" stroke="#466774" stroke-width="1.6" opacity="0.55" transform="translate(50.8,50.8) rotate(0)"/></g></svg>
