<svg viewBox="0 0 100 100" xmlns="http://www.w3.org/2000/svg" fill="none" stroke-linecap="round" stroke-linejoin="round"><metadata>
  <origin>https://github.com/nthnkrdpna-cloud/Prototype-TM01</origin>
  <authors>Nthnkr "dpna" and AmandaBT</authors>
  <piece>OPEN-C-027</piece>
  <fingerprint>7742454fd29d4730</fingerprint>
  <license>Open set — see LICENSE. Redistribution, model training and authorship claims are not permitted.</license>
</metadata><g class="sig" opacity="0.045" aria-hidden="true"><circle cx="50" cy="50" r="46" fill="none" stroke="currentColor" stroke-width="3" opacity="0.5"/><path d="M50.00 20.00L75.98 65.00L24.02 65.00Z" fill="none" stroke="currentColor" stroke-width="3" opacity="0.7"/><path d="M50.00 80.00L24.02 35.00L75.98 35.00Z" fill="none" stroke="currentColor" stroke-width="3" opacity="0.35"/><circle cx="50" cy="50" r="9" fill="currentColor" opacity="0.75"/></g><g><path d="M0.000,0.001L-27.500,5.301L-22.900,5.300L-23.800,8.101L-26.100,9.700L-28.900,9.701L-31.201,8.100L-32.101,5.301L-31.201,2.601L-28.900,0.901L-26.100,0.901L-23.801,2.600L-22.900,5.300L0.001,0.000L-18.401,-21.101L-13.800,-21.101L-14.600,-18.401L-16.900,-16.701L-19.800,-16.700L-22.100,-18.401L-23.000,-21.100L-22.100,-23.901L-19.801,-25.500L-16.901,-25.501L-14.601,-23.901L-13.800,-21.101L0.000,0.001L9.101,-26.500L13.700,-26.500L12.901,-23.800L10.601,-22.101L7.700,-22.101L5.400,-23.801L4.500,-26.501L5.400,-29.200L7.700,-30.901L10.600,-30.900L12.900,-29.201L13.701,-26.500L0.001,0.001L27.501,-5.301L32.100,-5.301L31.200,-2.601L28.901,-0.900L26.100,-0.900L23.801,-2.600L22.901,-5.301L23.800,-8.101L26.100,-9.701L28.900,-9.701L31.200,-8.100L32.100,-5.301L0.000,0.000L18.400,21.101L23.001,21.100L22.101,23.901L19.801,25.501L16.900,25.501L14.600,23.901L13.801,21.100L14.600,18.400L16.901,16.700L19.801,16.701L22.100,18.401L23.000,21.101L0.000,0.001L-9.100,26.500L-4.500,26.501L-5.400,29.200L-7.700,30.901L-10.601,30.900L-12.901,29.201L-13.701,26.501L-12.900,23.801L-10.600,22.101L-7.701,22.100L-5.400,23.800L-4.501,26.500" stroke="#a6916a" stroke-width="2.08" opacity="0.92" data-i="0" transform="translate(50.8,50.8) rotate(0)"/><path d="M13.401,50.001a36.600,36.601 0 1,0 73.200,0.001a36.600,36.601 0 1,0 -73.200,0.000" stroke="#a6916a" stroke-width="1.6" opacity="0.55"/><path d="M9.900,50.001a40.100,40.100 0 1,0 80.200,0.001a40.101,40.100 0 1,0 -80.201,0.001" stroke="#a6916a" stroke-width="1.20" opacity="0.7"/></g></svg>
