<svg viewBox="0 0 100 100" xmlns="http://www.w3.org/2000/svg" fill="none" stroke-linecap="round" stroke-linejoin="round"><metadata>
  <origin>https://github.com/nthnkrdpna-cloud/Prototype-TM01</origin>
  <authors>Nthnkr "dpna" and AmandaBT</authors>
  <piece>OPEN-B-018</piece>
  <fingerprint>d9111d62d6949000</fingerprint>
  <license>Open set — see LICENSE. Redistribution, model training and authorship claims are not permitted.</license>
</metadata><g class="sig" opacity="0.045" aria-hidden="true"><circle cx="50" cy="50" r="46" fill="none" stroke="currentColor" stroke-width="3" opacity="0.5"/><path d="M50.00 20.00L75.98 65.00L24.02 65.00Z" fill="none" stroke="currentColor" stroke-width="3" opacity="0.7"/><path d="M50.00 80.00L24.02 35.00L75.98 35.00Z" fill="none" stroke="currentColor" stroke-width="3" opacity="0.35"/><circle cx="50" cy="50" r="9" fill="currentColor" opacity="0.75"/></g><g><path d="M0.000,0.001a4.621,4.621 0 1,1 0.221,0.001" stroke="#344c69" stroke-width="2.30" opacity="0.92" data-i="0" transform="translate(50.8,50.8) rotate(191)"/><path d="M0.000,0.000q1.951,-3.120 3.901,0.000q1.950,3.121 3.901,0.001" stroke="#344c69" stroke-width="1.86" opacity="0.92" data-i="1" transform="translate(60.3,58.7) rotate(45)"/><path d="M0.001,0.001q1.950,-3.120 3.901,0.001q1.950,3.121 3.900,0.001" stroke="#344c69" stroke-width="1.86" opacity="0.92" data-i="2" transform="translate(46.0,61.9) rotate(113)"/><path d="M0.001,0.000q1.950,-3.120 3.901,0.001q1.950,3.121 3.901,0.001" stroke="#344c69" stroke-width="1.86" opacity="0.92" data-i="3" transform="translate(38.1,49.2) rotate(180)"/><path d="M0.001,0.001q1.950,-3.120 3.901,0.000q1.951,3.120 3.900,0.001" stroke="#344c69" stroke-width="1.86" opacity="0.92" data-i="4" transform="translate(47.6,38.1) rotate(259)"/><path d="M0.001,0.001q1.951,-3.121 3.900,0.000q1.951,3.121 3.900,0.001" stroke="#344c69" stroke-width="1.86" opacity="0.92" data-i="5" transform="translate(61.9,44.4) rotate(326)"/><path d="M0.000,0.001a1.223,1.222 0 1,0 0.010,0.000" stroke="#344c69" stroke-width="2.08" opacity="0.92" data-i="6" transform="translate(57.1,69.8) rotate(68)"/><path d="M0.001,0.001a1.222,1.223 0 1,0 0.011,0.001" stroke="#344c69" stroke-width="2.08" opacity="0.92" data-i="7" transform="translate(36.5,66.7) rotate(135)"/><path d="M0.001,0.001a1.222,1.222 0 1,0 0.011,0.000" stroke="#344c69" stroke-width="2.08" opacity="0.92" data-i="8" transform="translate(30.2,47.6) rotate(191)"/><path d="M0.001,0.000a1.222,1.223 0 1,0 0.011,0.001" stroke="#344c69" stroke-width="2.08" opacity="0.92" data-i="9" transform="translate(44.4,31.8) rotate(248)"/><path d="M0.001,0.001a1.222,1.222 0 1,0 0.011,0.001" stroke="#344c69" stroke-width="2.08" opacity="0.92" data-i="10" transform="translate(65.1,34.9) rotate(315)"/><path d="M0.000,0.001a1.222,1.223 0 1,0 0.011,0.000" stroke="#344c69" stroke-width="2.08" opacity="0.92" data-i="11" transform="translate(71.4,54.0) rotate(11)"/><path d="M-29.500,0.000a29.501,29.501 0 1,0 58.900,0.001a29.501,29.501 0 1,0 -58.901,0.001" stroke="#344c69" stroke-width="1.6" opacity="0.55" transform="translate(50.8,50.7) rotate(0)"/><path d="M81.800,53.800A32.001,32.000 0 0,1 75.201,69.800" stroke="#344c69" stroke-width="1.00" opacity="0.65"/><path d="M69.800,75.201A32.001,32.001 0 0,1 53.801,81.801" stroke="#344c69" stroke-width="1.00" opacity="0.65"/><path d="M46.200,81.800A32.001,32.001 0 0,1 30.200,75.201" stroke="#344c69" stroke-width="1.00" opacity="0.65"/><path d="M24.800,69.801A32.001,32.000 0 0,1 18.200,53.800" stroke="#344c69" stroke-width="1.00" opacity="0.65"/><path d="M18.201,46.201A32.000,32.001 0 0,1 24.801,30.201" stroke="#344c69" stroke-width="1.00" opacity="0.65"/><path d="M30.201,24.801A32.000,32.000 0 0,1 46.201,18.200" stroke="#344c69" stroke-width="1.00" opacity="0.65"/><path d="M53.801,18.200A32.000,32.001 0 0,1 69.801,24.801" stroke="#344c69" stroke-width="1.00" opacity="0.65"/><path d="M75.201,30.201A32.000,32.000 0 0,1 81.801,46.201" stroke="#344c69" stroke-width="1.00" opacity="0.65"/></g></svg>
