<svg viewBox="0 0 100 100" xmlns="http://www.w3.org/2000/svg" fill="none" stroke-linecap="round" stroke-linejoin="round"><metadata>
  <origin>https://github.com/nthnkrdpna-cloud/Prototype-TM01</origin>
  <authors>Nthnkr "dpna" and AmandaBT</authors>
  <piece>OPEN-A-022</piece>
  <fingerprint>d368942135656194</fingerprint>
  <license>Open set — see LICENSE. Redistribution, model training and authorship claims are not permitted.</license>
</metadata><g class="sig" opacity="0.045" aria-hidden="true"><circle cx="50" cy="50" r="46" fill="none" stroke="currentColor" stroke-width="3" opacity="0.5"/><path d="M50.00 20.00L75.98 65.00L24.02 65.00Z" fill="none" stroke="currentColor" stroke-width="3" opacity="0.7"/><path d="M50.00 80.00L24.02 35.00L75.98 35.00Z" fill="none" stroke="currentColor" stroke-width="3" opacity="0.35"/><circle cx="50" cy="50" r="9" fill="currentColor" opacity="0.75"/></g><g><path d="M0,0H14.200000000000001" stroke="#385971" stroke-width="2.74" opacity="0.92" data-i="0" transform="translate(50.8,50.8) rotate(304)"/><path d="M0,-6.6A8.25,8.25 0 0,1 0,6.6" stroke="#385971" stroke-width="2.30" opacity="0.92" data-i="1" transform="translate(55.6,42.9) rotate(304)"/><path d="M0,-6.6A8.25,8.25 0 0,1 0,6.6" stroke="#385971" stroke-width="2.30" opacity="0.92" data-i="2" transform="translate(58.7,55.6) rotate(34)"/><path d="M0,-6.6A8.25,8.25 0 0,1 0,6.6" stroke="#385971" stroke-width="2.30" opacity="0.92" data-i="3" transform="translate(46.0,58.7) rotate(124)"/><path d="M0,-6.6A8.25,8.25 0 0,1 0,6.6" stroke="#385971" stroke-width="2.30" opacity="0.92" data-i="4" transform="translate(42.9,46.0) rotate(214)"/><path d="M-17.3,0a17.3,17.3 0 1,0 34.5,0a17.3,17.3 0 1,0 -34.5,0" stroke="#385971" stroke-width="1.6" opacity="0.55" transform="translate(50.8,50.8) rotate(0)"/></g></svg>
