<svg viewBox="0 0 100 100" xmlns="http://www.w3.org/2000/svg" fill="none" stroke-linecap="round" stroke-linejoin="round"><metadata>
  <origin>https://github.com/nthnkrdpna-cloud/Prototype-TM01</origin>
  <authors>Nthnkr "dpna" and AmandaBT</authors>
  <piece>OPEN-A-034</piece>
  <fingerprint>7bda3f62075831d9</fingerprint>
  <license>Open set — see LICENSE. Redistribution, model training and authorship claims are not permitted.</license>
</metadata><g class="sig" opacity="0.045" aria-hidden="true"><circle cx="50" cy="50" r="46" fill="none" stroke="currentColor" stroke-width="3" opacity="0.5"/><path d="M50.00 20.00L75.98 65.00L24.02 65.00Z" fill="none" stroke="currentColor" stroke-width="3" opacity="0.7"/><path d="M50.00 80.00L24.02 35.00L75.98 35.00Z" fill="none" stroke="currentColor" stroke-width="3" opacity="0.35"/><circle cx="50" cy="50" r="9" fill="currentColor" opacity="0.75"/></g><g><path d="M0,0q3.1500000000000004,-5.040000000000001 6.300000000000001,0q3.1500000000000004,5.040000000000001 6.300000000000001,0" stroke="#53878f" stroke-width="2.52" opacity="0.92" data-i="0" transform="translate(50.8,50.8) rotate(0)"/><path d="M0,-7.5600000000000005A9.450000000000001,9.450000000000001 0 0,1 0,7.5600000000000005" stroke="#53878f" stroke-width="2.52" opacity="0.92" data-i="1" transform="translate(58.7,50.8) rotate(0)"/><path d="M0,-7.5600000000000005A9.450000000000001,9.450000000000001 0 0,1 0,7.5600000000000005" stroke="#53878f" stroke-width="2.52" opacity="0.92" data-i="2" transform="translate(50.8,58.7) rotate(90)"/><path d="M0,-7.5600000000000005A9.450000000000001,9.450000000000001 0 0,1 0,7.5600000000000005" stroke="#53878f" stroke-width="2.52" opacity="0.92" data-i="3" transform="translate(42.9,50.8) rotate(180)"/><path d="M0,-7.5600000000000005A9.450000000000001,9.450000000000001 0 0,1 0,7.5600000000000005" stroke="#53878f" stroke-width="2.52" opacity="0.92" data-i="4" transform="translate(50.8,42.9) rotate(270)"/><path d="M-15.9,0a15.9,15.9 0 1,0 31.9,0a15.9,15.9 0 1,0 -31.9,0" stroke="#53878f" stroke-width="1.6" opacity="0.55" transform="translate(50.8,50.8) rotate(0)"/></g></svg>
