<svg viewBox="0 0 100 100" xmlns="http://www.w3.org/2000/svg" fill="none" stroke-linecap="round" stroke-linejoin="round"><metadata>
  <origin>https://github.com/nthnkrdpna-cloud/Prototype-TM01</origin>
  <authors>Nthnkr "dpna" and AmandaBT</authors>
  <piece>OPEN-C-013</piece>
  <fingerprint>823ae5bf50fa7d2d</fingerprint>
  <license>Open set — see LICENSE. Redistribution, model training and authorship claims are not permitted.</license>
</metadata><g class="sig" opacity="0.045" aria-hidden="true"><circle cx="50" cy="50" r="46" fill="none" stroke="currentColor" stroke-width="3" opacity="0.5"/><path d="M50.00 20.00L75.98 65.00L24.02 65.00Z" fill="none" stroke="currentColor" stroke-width="3" opacity="0.7"/><path d="M50.00 80.00L24.02 35.00L75.98 35.00Z" fill="none" stroke="currentColor" stroke-width="3" opacity="0.35"/><circle cx="50" cy="50" r="9" fill="currentColor" opacity="0.75"/></g><g><path d="M-5.000,-5.001L-5.001,-25.000L15.000,-5.000L15.001,5.000L25.001,-25.001L5.001,-25.001L-25.000,-25.000L5.000,25.000L15.000,-15.000L5.000,25.000L5.001,-15.000L5.001,15.001" stroke="#9a6e56" stroke-width="2.08" opacity="0.92" data-i="0" transform="translate(50.8,50.8) rotate(0)"/><path d="M-1.000,-5.001L-1.800,-2.601L-3.800,-1.200L-6.201,-1.200L-8.200,-2.601L-9.001,-5.000L-8.200,-7.300L-6.201,-8.800L-3.801,-8.801L-1.801,-7.301L-1.000,-5.000" stroke="#9a6e56" stroke-width="2.08" opacity="0.92" data-i="1" transform="translate(50.8,50.8) rotate(0)"/><path d="M1.000,15.000L9.000,15.000" stroke="#9a6e56" stroke-width="2.08" opacity="0.92" data-i="2" transform="translate(50.8,50.8) rotate(0)"/><path d="M9.600,50.000a40.401,40.400 0 1,0 80.701,0.001a40.400,40.401 0 1,0 -80.700,0.001" stroke="#9a6e56" stroke-width="1.6" opacity="0.55"/><path d="M6.100,50.000a43.901,43.900 0 1,0 87.700,0.001a43.901,43.900 0 1,0 -87.700,0.000" stroke="#9a6e56" stroke-width="1.20" opacity="0.7"/></g></svg>
